<svg xmlns="http://www.w3.org/2000/svg" viewBox="0 0 32 32" width="32" height="32"><defs><linearGradient id="oc" x1="0%" y1="0%" x2="100%" y2="100%"><stop offset="0%" stop-color="#FF6B35"/><stop offset="100%" stop-color="#F7C948"/></linearGradient></defs><path d="M16 2C8.268 2 2 8.268 2 16s6.268 14 14 14 14-6.268 14-14S23.732 2 16 2zm-2.5 20.5c-1.38 0-2.5-1.12-2.5-2.5s1.12-2.5 2.5-2.5 2.5 1.12 2.5 2.5-1.12 2.5-2.5 2.5zm5-7c-1.38 0-2.5-1.12-2.5-2.5s1.12-2.5 2.5-2.5 2.5 1.12 2.5 2.5-1.12 2.5-2.5 2.5z" fill="url(#oc)"/><path d="M10 11l6 3.5L10 18v-7zm12 2l-6 3.5V13l6-3.5V13z" fill="#fff" opacity="0.9"/></svg>
